solid OpenSCAD_Model
  facet normal 0.994522 0.104528 0
    outer loop
      vertex 36.3 0 10
      vertex 35.5068 7.54719 0
      vertex 35.5068 7.54719 10
    endloop
  endfacet
  facet normal 0.994522 0.104528 0
    outer loop
      vertex 35.5068 7.54719 0
      vertex 36.3 0 10
      vertex 36.3 0 0
    endloop
  endfacet
  facet normal -0.994522 0.104528 0
    outer loop
      vertex -36.3 0 0
      vertex -35.5068 7.54719 10
      vertex -35.5068 7.54719 0
    endloop
  endfacet
  facet normal -0.994522 0.104528 0
    outer loop
      vertex -35.5068 7.54719 10
      vertex -36.3 0 0
      vertex -36.3 0 10
    endloop
  endfacet
  facet normal 0 1 -0
    outer loop
      vertex 3.79438 36.1011 0
      vertex -3.79438 36.1011 10
      vertex 3.79438 36.1011 10
    endloop
  endfacet
  facet normal 0 1 0
    outer loop
      vertex -3.79438 36.1011 10
      vertex 3.79438 36.1011 0
      vertex -3.79438 36.1011 0
    endloop
  endfacet
  facet normal 0 -1 0
    outer loop
      vertex -3.79438 -36.1011 0
      vertex 3.79438 -36.1011 10
      vertex -3.79438 -36.1011 10
    endloop
  endfacet
  facet normal 0 -1 -0
    outer loop
      vertex 3.79438 -36.1011 10
      vertex -3.79438 -36.1011 0
      vertex 3.79438 -36.1011 0
    endloop
  endfacet
  facet normal 0.587785 0.809017 -0
    outer loop
      vertex 24.2894 26.9762 0
      vertex 18.15 31.4367 10
      vertex 24.2894 26.9762 10
    endloop
  endfacet
  facet normal 0.587785 0.809017 0
    outer loop
      vertex 18.15 31.4367 10
      vertex 24.2894 26.9762 0
      vertex 18.15 31.4367 0
    endloop
  endfacet
  facet normal -0.743145 0.669131 0
    outer loop
      vertex -29.3673 21.3366 0
      vertex -24.2894 26.9762 10
      vertex -24.2894 26.9762 0
    endloop
  endfacet
  facet normal -0.743145 0.669131 0
    outer loop
      vertex -24.2894 26.9762 10
      vertex -29.3673 21.3366 0
      vertex -29.3673 21.3366 10
    endloop
  endfacet
  facet normal 0 0 1
    outer loop
      vertex 33.3 0 10
      vertex 36.3 0 10
      vertex 35.5068 7.54719 10
    endloop
  endfacet
  facet normal 0 0 1
    outer loop
      vertex 36.3 0 10
      vertex 33.3 0 10
      vertex 35.5068 -7.54719 10
    endloop
  endfacet
  facet normal 0 0 1
    outer loop
      vertex 32.5723 6.92346 10
      vertex 35.5068 7.54719 10
      vertex 33.1617 14.7645 10
    endloop
  endfacet
  facet normal 0 0 1
    outer loop
      vertex 35.5068 7.54719 10
      vertex 32.5723 6.92346 10
      vertex 33.3 0 10
    endloop
  endfacet
  facet normal 0 0 1
    outer loop
      vertex 33.1617 14.7645 10
      vertex 30.4211 13.5443 10
      vertex 32.5723 6.92346 10
    endloop
  endfacet
  facet normal 0 0 1
    outer loop
      vertex 29.3673 21.3366 10
      vertex 30.4211 13.5443 10
      vertex 33.1617 14.7645 10
    endloop
  endfacet
  facet normal 0 0 1
    outer loop
      vertex 29.3673 21.3366 10
      vertex 26.9403 19.5732 10
      vertex 30.4211 13.5443 10
    endloop
  endfacet
  facet normal 0 0 1
    outer loop
      vertex 24.2894 26.9762 10
      vertex 26.9403 19.5732 10
      vertex 29.3673 21.3366 10
    endloop
  endfacet
  facet normal 0 0 1
    outer loop
      vertex 24.2894 26.9762 10
      vertex 22.282 24.7467 10
      vertex 26.9403 19.5732 10
    endloop
  endfacet
  facet normal 0 0 1
    outer loop
      vertex 18.15 31.4367 10
      vertex 22.282 24.7467 10
      vertex 24.2894 26.9762 10
    endloop
  endfacet
  facet normal 0 0 1
    outer loop
      vertex 18.15 31.4367 10
      vertex 16.65 28.8386 10
      vertex 22.282 24.7467 10
    endloop
  endfacet
  facet normal 0 0 1
    outer loop
      vertex 11.2173 34.5233 10
      vertex 16.65 28.8386 10
      vertex 18.15 31.4367 10
    endloop
  endfacet
  facet normal 0 0 1
    outer loop
      vertex 11.2173 34.5233 10
      vertex 10.2903 31.6702 10
      vertex 16.65 28.8386 10
    endloop
  endfacet
  facet normal 0 0 1
    outer loop
      vertex 3.79438 36.1011 10
      vertex 10.2903 31.6702 10
      vertex 11.2173 34.5233 10
    endloop
  endfacet
  facet normal 0 0 1
    outer loop
      vertex 3.79438 36.1011 10
      vertex 3.4808 33.1176 10
      vertex 10.2903 31.6702 10
    endloop
  endfacet
  facet normal 0 0 1
    outer loop
      vertex 3.79438 36.1011 10
      vertex -3.4808 33.1176 10
      vertex 3.4808 33.1176 10
    endloop
  endfacet
  facet normal -0 0 1
    outer loop
      vertex -3.79438 36.1011 10
      vertex -3.4808 33.1176 10
      vertex 3.79438 36.1011 10
    endloop
  endfacet
  facet normal 0 0 1
    outer loop
      vertex -3.79438 36.1011 10
      vertex -10.2903 31.6702 10
      vertex -3.4808 33.1176 10
    endloop
  endfacet
  facet normal -0 0 1
    outer loop
      vertex -11.2173 34.5233 10
      vertex -10.2903 31.6702 10
      vertex -3.79438 36.1011 10
    endloop
  endfacet
  facet normal 0 0 1
    outer loop
      vertex -11.2173 34.5233 10
      vertex -16.65 28.8386 10
      vertex -10.2903 31.6702 10
    endloop
  endfacet
  facet normal -0 0 1
    outer loop
      vertex -18.15 31.4367 10
      vertex -16.65 28.8386 10
      vertex -11.2173 34.5233 10
    endloop
  endfacet
  facet normal 0 0 1
    outer loop
      vertex -18.15 31.4367 10
      vertex -22.282 24.7467 10
      vertex -16.65 28.8386 10
    endloop
  endfacet
  facet normal -0 0 1
    outer loop
      vertex -24.2894 26.9762 10
      vertex -22.282 24.7467 10
      vertex -18.15 31.4367 10
    endloop
  endfacet
  facet normal 0 0 1
    outer loop
      vertex -24.2894 26.9762 10
      vertex -26.9403 19.5732 10
      vertex -22.282 24.7467 10
    endloop
  endfacet
  facet normal -0 0 1
    outer loop
      vertex -29.3673 21.3366 10
      vertex -26.9403 19.5732 10
      vertex -24.2894 26.9762 10
    endloop
  endfacet
  facet normal 0 0 1
    outer loop
      vertex -29.3673 21.3366 10
      vertex -30.4211 13.5443 10
      vertex -26.9403 19.5732 10
    endloop
  endfacet
  facet normal -0 0 1
    outer loop
      vertex -33.1617 14.7645 10
      vertex -30.4211 13.5443 10
      vertex -29.3673 21.3366 10
    endloop
  endfacet
  facet normal 0 0 1
    outer loop
      vertex -30.4211 13.5443 10
      vertex -33.1617 14.7645 10
      vertex -32.5723 6.92346 10
    endloop
  endfacet
  facet normal -0 0 1
    outer loop
      vertex -35.5068 7.54719 10
      vertex -32.5723 6.92346 10
      vertex -33.1617 14.7645 10
    endloop
  endfacet
  facet normal 0 0 1
    outer loop
      vertex -32.5723 6.92346 10
      vertex -35.5068 7.54719 10
      vertex -33.3 0 10
    endloop
  endfacet
  facet normal -0 0 1
    outer loop
      vertex 32.5723 -6.92346 10
      vertex 35.5068 -7.54719 10
      vertex 33.3 0 10
    endloop
  endfacet
  facet normal 0 0 1
    outer loop
      vertex 35.5068 -7.54719 10
      vertex 32.5723 -6.92346 10
      vertex 33.1617 -14.7645 10
    endloop
  endfacet
  facet normal -0 0 1
    outer loop
      vertex 30.4211 -13.5443 10
      vertex 33.1617 -14.7645 10
      vertex 32.5723 -6.92346 10
    endloop
  endfacet
  facet normal 0 0 1
    outer loop
      vertex 30.4211 -13.5443 10
      vertex 29.3673 -21.3366 10
      vertex 33.1617 -14.7645 10
    endloop
  endfacet
  facet normal -0 0 1
    outer loop
      vertex 26.9403 -19.5732 10
      vertex 29.3673 -21.3366 10
      vertex 30.4211 -13.5443 10
    endloop
  endfacet
  facet normal 0 0 1
    outer loop
      vertex 26.9403 -19.5732 10
      vertex 24.2894 -26.9762 10
      vertex 29.3673 -21.3366 10
    endloop
  endfacet
  facet normal -0 0 1
    outer loop
      vertex 22.282 -24.7467 10
      vertex 24.2894 -26.9762 10
      vertex 26.9403 -19.5732 10
    endloop
  endfacet
  facet normal 0 0 1
    outer loop
      vertex 22.282 -24.7467 10
      vertex 18.15 -31.4367 10
      vertex 24.2894 -26.9762 10
    endloop
  endfacet
  facet normal -0 0 1
    outer loop
      vertex 16.65 -28.8386 10
      vertex 18.15 -31.4367 10
      vertex 22.282 -24.7467 10
    endloop
  endfacet
  facet normal 0 0 1
    outer loop
      vertex 16.65 -28.8386 10
      vertex 11.2173 -34.5233 10
      vertex 18.15 -31.4367 10
    endloop
  endfacet
  facet normal -0 0 1
    outer loop
      vertex 10.2903 -31.6702 10
      vertex 11.2173 -34.5233 10
      vertex 16.65 -28.8386 10
    endloop
  endfacet
  facet normal 0 0 1
    outer loop
      vertex 10.2903 -31.6702 10
      vertex 3.79438 -36.1011 10
      vertex 11.2173 -34.5233 10
    endloop
  endfacet
  facet normal -0 0 1
    outer loop
      vertex 3.4808 -33.1176 10
      vertex 3.79438 -36.1011 10
      vertex 10.2903 -31.6702 10
    endloop
  endfacet
  facet normal -0 0 1
    outer loop
      vertex -3.4808 -33.1176 10
      vertex 3.79438 -36.1011 10
      vertex 3.4808 -33.1176 10
    endloop
  endfacet
  facet normal 0 0 1
    outer loop
      vertex -3.4808 -33.1176 10
      vertex -3.79438 -36.1011 10
      vertex 3.79438 -36.1011 10
    endloop
  endfacet
  facet normal 0 0 1
    outer loop
      vertex -10.2903 -31.6702 10
      vertex -3.79438 -36.1011 10
      vertex -3.4808 -33.1176 10
    endloop
  endfacet
  facet normal 0 0 1
    outer loop
      vertex -10.2903 -31.6702 10
      vertex -11.2173 -34.5233 10
      vertex -3.79438 -36.1011 10
    endloop
  endfacet
  facet normal 0 0 1
    outer loop
      vertex -16.65 -28.8386 10
      vertex -11.2173 -34.5233 10
      vertex -10.2903 -31.6702 10
    endloop
  endfacet
  facet normal 0 0 1
    outer loop
      vertex -16.65 -28.8386 10
      vertex -18.15 -31.4367 10
      vertex -11.2173 -34.5233 10
    endloop
  endfacet
  facet normal 0 0 1
    outer loop
      vertex -22.282 -24.7467 10
      vertex -18.15 -31.4367 10
      vertex -16.65 -28.8386 10
    endloop
  endfacet
  facet normal 0 0 1
    outer loop
      vertex -22.282 -24.7467 10
      vertex -24.2894 -26.9762 10
      vertex -18.15 -31.4367 10
    endloop
  endfacet
  facet normal 0 0 1
    outer loop
      vertex -26.9403 -19.5732 10
      vertex -24.2894 -26.9762 10
      vertex -22.282 -24.7467 10
    endloop
  endfacet
  facet normal 0 0 1
    outer loop
      vertex -26.9403 -19.5732 10
      vertex -29.3673 -21.3366 10
      vertex -24.2894 -26.9762 10
    endloop
  endfacet
  facet normal 0 0 1
    outer loop
      vertex -30.4211 -13.5443 10
      vertex -29.3673 -21.3366 10
      vertex -26.9403 -19.5732 10
    endloop
  endfacet
  facet normal 0 0 1
    outer loop
      vertex -33.1617 -14.7645 10
      vertex -30.4211 -13.5443 10
      vertex -32.5723 -6.92346 10
    endloop
  endfacet
  facet normal 0 0 1
    outer loop
      vertex -30.4211 -13.5443 10
      vertex -33.1617 -14.7645 10
      vertex -29.3673 -21.3366 10
    endloop
  endfacet
  facet normal 0 0 1
    outer loop
      vertex -35.5068 -7.54719 10
      vertex -32.5723 -6.92346 10
      vertex -33.3 0 10
    endloop
  endfacet
  facet normal 0 0 1
    outer loop
      vertex -36.3 0 10
      vertex -33.3 0 10
      vertex -35.5068 7.54719 10
    endloop
  endfacet
  facet normal 0 0 1
    outer loop
      vertex -32.5723 -6.92346 10
      vertex -35.5068 -7.54719 10
      vertex -33.1617 -14.7645 10
    endloop
  endfacet
  facet normal 0 0 1
    outer loop
      vertex -33.3 0 10
      vertex -36.3 0 10
      vertex -35.5068 -7.54719 10
    endloop
  endfacet
  facet normal -0.406736 0.913546 0
    outer loop
      vertex -11.2173 34.5233 0
      vertex -18.15 31.4367 10
      vertex -11.2173 34.5233 10
    endloop
  endfacet
  facet normal -0.406736 0.913546 0
    outer loop
      vertex -18.15 31.4367 10
      vertex -11.2173 34.5233 0
      vertex -18.15 31.4367 0
    endloop
  endfacet
  facet normal 0.866026 -0.5 0
    outer loop
      vertex 29.3673 -21.3366 10
      vertex 33.1617 -14.7645 0
      vertex 33.1617 -14.7645 10
    endloop
  endfacet
  facet normal 0.866026 -0.5 0
    outer loop
      vertex 33.1617 -14.7645 0
      vertex 29.3673 -21.3366 10
      vertex 29.3673 -21.3366 0
    endloop
  endfacet
  facet normal 0.866026 0.5 0
    outer loop
      vertex 33.1617 14.7645 10
      vertex 29.3673 21.3366 0
      vertex 29.3673 21.3366 10
    endloop
  endfacet
  facet normal 0.866026 0.5 0
    outer loop
      vertex 29.3673 21.3366 0
      vertex 33.1617 14.7645 10
      vertex 33.1617 14.7645 0
    endloop
  endfacet
  facet normal 0.951056 0.309018 0
    outer loop
      vertex 35.5068 7.54719 10
      vertex 33.1617 14.7645 0
      vertex 33.1617 14.7645 10
    endloop
  endfacet
  facet normal 0.951056 0.309018 0
    outer loop
      vertex 33.1617 14.7645 0
      vertex 35.5068 7.54719 10
      vertex 35.5068 7.54719 0
    endloop
  endfacet
  facet normal 0.743145 0.669131 0
    outer loop
      vertex 29.3673 21.3366 10
      vertex 24.2894 26.9762 0
      vertex 24.2894 26.9762 10
    endloop
  endfacet
  facet normal 0.743145 0.669131 0
    outer loop
      vertex 24.2894 26.9762 0
      vertex 29.3673 21.3366 10
      vertex 29.3673 21.3366 0
    endloop
  endfacet
  facet normal 0.207912 0.978148 -0
    outer loop
      vertex 11.2173 34.5233 0
      vertex 3.79438 36.1011 10
      vertex 11.2173 34.5233 10
    endloop
  endfacet
  facet normal 0.207912 0.978148 0
    outer loop
      vertex 3.79438 36.1011 10
      vertex 11.2173 34.5233 0
      vertex 3.79438 36.1011 0
    endloop
  endfacet
  facet normal 0.406736 0.913546 -0
    outer loop
      vertex 18.15 31.4367 0
      vertex 11.2173 34.5233 10
      vertex 18.15 31.4367 10
    endloop
  endfacet
  facet normal 0.406736 0.913546 0
    outer loop
      vertex 11.2173 34.5233 10
      vertex 18.15 31.4367 0
      vertex 11.2173 34.5233 0
    endloop
  endfacet
  facet normal -0.866026 0.5 0
    outer loop
      vertex -33.1617 14.7645 0
      vertex -29.3673 21.3366 10
      vertex -29.3673 21.3366 0
    endloop
  endfacet
  facet normal -0.866026 0.5 0
    outer loop
      vertex -29.3673 21.3366 10
      vertex -33.1617 14.7645 0
      vertex -33.1617 14.7645 10
    endloop
  endfacet
  facet normal -0.951056 0.309018 0
    outer loop
      vertex -35.5068 7.54719 0
      vertex -33.1617 14.7645 10
      vertex -33.1617 14.7645 0
    endloop
  endfacet
  facet normal -0.951056 0.309018 0
    outer loop
      vertex -33.1617 14.7645 10
      vertex -35.5068 7.54719 0
      vertex -35.5068 7.54719 10
    endloop
  endfacet
  facet normal -0.587785 0.809017 0
    outer loop
      vertex -18.15 31.4367 0
      vertex -24.2894 26.9762 10
      vertex -18.15 31.4367 10
    endloop
  endfacet
  facet normal -0.587785 0.809017 0
    outer loop
      vertex -24.2894 26.9762 10
      vertex -18.15 31.4367 0
      vertex -24.2894 26.9762 0
    endloop
  endfacet
  facet normal -0.207912 0.978148 0
    outer loop
      vertex -3.79438 36.1011 0
      vertex -11.2173 34.5233 10
      vertex -3.79438 36.1011 10
    endloop
  endfacet
  facet normal -0.207912 0.978148 0
    outer loop
      vertex -11.2173 34.5233 10
      vertex -3.79438 36.1011 0
      vertex -11.2173 34.5233 0
    endloop
  endfacet
  facet normal 0.994522 -0.104528 0
    outer loop
      vertex 35.5068 -7.54719 10
      vertex 36.3 0 0
      vertex 36.3 0 10
    endloop
  endfacet
  facet normal 0.994522 -0.104528 0
    outer loop
      vertex 36.3 0 0
      vertex 35.5068 -7.54719 10
      vertex 35.5068 -7.54719 0
    endloop
  endfacet
  facet normal 0.951056 -0.309018 0
    outer loop
      vertex 33.1617 -14.7645 10
      vertex 35.5068 -7.54719 0
      vertex 35.5068 -7.54719 10
    endloop
  endfacet
  facet normal 0.951056 -0.309018 0
    outer loop
      vertex 35.5068 -7.54719 0
      vertex 33.1617 -14.7645 10
      vertex 33.1617 -14.7645 0
    endloop
  endfacet
  facet normal 0 0 -1
    outer loop
      vertex 33.3 0 0
      vertex 36.3 0 0
      vertex 35.5068 -7.54719 0
    endloop
  endfacet
  facet normal 0 0 -1
    outer loop
      vertex 36.3 0 0
      vertex 33.3 0 0
      vertex 35.5068 7.54719 0
    endloop
  endfacet
  facet normal 0 0 -1
    outer loop
      vertex 32.5723 -6.92346 0
      vertex 35.5068 -7.54719 0
      vertex 33.1617 -14.7645 0
    endloop
  endfacet
  facet normal 0 0 -1
    outer loop
      vertex 35.5068 -7.54719 0
      vertex 32.5723 -6.92346 0
      vertex 33.3 0 0
    endloop
  endfacet
  facet normal 0 0 -1
    outer loop
      vertex 33.1617 -14.7645 0
      vertex 30.4211 -13.5443 0
      vertex 32.5723 -6.92346 0
    endloop
  endfacet
  facet normal 0 0 -1
    outer loop
      vertex 29.3673 -21.3366 0
      vertex 30.4211 -13.5443 0
      vertex 33.1617 -14.7645 0
    endloop
  endfacet
  facet normal 0 0 -1
    outer loop
      vertex 29.3673 -21.3366 0
      vertex 26.9403 -19.5732 0
      vertex 30.4211 -13.5443 0
    endloop
  endfacet
  facet normal 0 0 -1
    outer loop
      vertex 24.2894 -26.9762 0
      vertex 26.9403 -19.5732 0
      vertex 29.3673 -21.3366 0
    endloop
  endfacet
  facet normal 0 0 -1
    outer loop
      vertex 24.2894 -26.9762 0
      vertex 22.282 -24.7467 0
      vertex 26.9403 -19.5732 0
    endloop
  endfacet
  facet normal 0 0 -1
    outer loop
      vertex 18.15 -31.4367 0
      vertex 22.282 -24.7467 0
      vertex 24.2894 -26.9762 0
    endloop
  endfacet
  facet normal 0 0 -1
    outer loop
      vertex 18.15 -31.4367 0
      vertex 16.65 -28.8386 0
      vertex 22.282 -24.7467 0
    endloop
  endfacet
  facet normal 0 0 -1
    outer loop
      vertex 11.2173 -34.5233 0
      vertex 16.65 -28.8386 0
      vertex 18.15 -31.4367 0
    endloop
  endfacet
  facet normal 0 0 -1
    outer loop
      vertex 11.2173 -34.5233 0
      vertex 10.2903 -31.6702 0
      vertex 16.65 -28.8386 0
    endloop
  endfacet
  facet normal 0 0 -1
    outer loop
      vertex 3.79438 -36.1011 0
      vertex 10.2903 -31.6702 0
      vertex 11.2173 -34.5233 0
    endloop
  endfacet
  facet normal 0 0 -1
    outer loop
      vertex 3.79438 -36.1011 0
      vertex 3.4808 -33.1176 0
      vertex 10.2903 -31.6702 0
    endloop
  endfacet
  facet normal 0 0 -1
    outer loop
      vertex 3.79438 -36.1011 0
      vertex -3.4808 -33.1176 0
      vertex 3.4808 -33.1176 0
    endloop
  endfacet
  facet normal 0 0 -1
    outer loop
      vertex -3.79438 -36.1011 0
      vertex -3.4808 -33.1176 0
      vertex 3.79438 -36.1011 0
    endloop
  endfacet
  facet normal 0 0 -1
    outer loop
      vertex -3.79438 -36.1011 0
      vertex -10.2903 -31.6702 0
      vertex -3.4808 -33.1176 0
    endloop
  endfacet
  facet normal 0 0 -1
    outer loop
      vertex -11.2173 -34.5233 0
      vertex -10.2903 -31.6702 0
      vertex -3.79438 -36.1011 0
    endloop
  endfacet
  facet normal 0 0 -1
    outer loop
      vertex -11.2173 -34.5233 0
      vertex -16.65 -28.8386 0
      vertex -10.2903 -31.6702 0
    endloop
  endfacet
  facet normal 0 0 -1
    outer loop
      vertex -18.15 -31.4367 0
      vertex -16.65 -28.8386 0
      vertex -11.2173 -34.5233 0
    endloop
  endfacet
  facet normal 0 0 -1
    outer loop
      vertex -18.15 -31.4367 0
      vertex -22.282 -24.7467 0
      vertex -16.65 -28.8386 0
    endloop
  endfacet
  facet normal 0 0 -1
    outer loop
      vertex -24.2894 -26.9762 0
      vertex -22.282 -24.7467 0
      vertex -18.15 -31.4367 0
    endloop
  endfacet
  facet normal 0 0 -1
    outer loop
      vertex -24.2894 -26.9762 0
      vertex -26.9403 -19.5732 0
      vertex -22.282 -24.7467 0
    endloop
  endfacet
  facet normal 0 0 -1
    outer loop
      vertex -29.3673 -21.3366 0
      vertex -26.9403 -19.5732 0
      vertex -24.2894 -26.9762 0
    endloop
  endfacet
  facet normal 0 0 -1
    outer loop
      vertex -29.3673 -21.3366 0
      vertex -30.4211 -13.5443 0
      vertex -26.9403 -19.5732 0
    endloop
  endfacet
  facet normal 0 0 -1
    outer loop
      vertex -33.1617 -14.7645 0
      vertex -30.4211 -13.5443 0
      vertex -29.3673 -21.3366 0
    endloop
  endfacet
  facet normal -0 0 -1
    outer loop
      vertex -30.4211 -13.5443 0
      vertex -33.1617 -14.7645 0
      vertex -32.5723 -6.92346 0
    endloop
  endfacet
  facet normal 0 0 -1
    outer loop
      vertex -35.5068 -7.54719 0
      vertex -32.5723 -6.92346 0
      vertex -33.1617 -14.7645 0
    endloop
  endfacet
  facet normal -0 0 -1
    outer loop
      vertex -32.5723 -6.92346 0
      vertex -35.5068 -7.54719 0
      vertex -33.3 0 0
    endloop
  endfacet
  facet normal 0 0 -1
    outer loop
      vertex 32.5723 6.92346 0
      vertex 35.5068 7.54719 0
      vertex 33.3 0 0
    endloop
  endfacet
  facet normal -0 0 -1
    outer loop
      vertex 35.5068 7.54719 0
      vertex 32.5723 6.92346 0
      vertex 33.1617 14.7645 0
    endloop
  endfacet
  facet normal 0 0 -1
    outer loop
      vertex 30.4211 13.5443 0
      vertex 33.1617 14.7645 0
      vertex 32.5723 6.92346 0
    endloop
  endfacet
  facet normal 0 0 -1
    outer loop
      vertex 30.4211 13.5443 0
      vertex 29.3673 21.3366 0
      vertex 33.1617 14.7645 0
    endloop
  endfacet
  facet normal 0 0 -1
    outer loop
      vertex 26.9403 19.5732 0
      vertex 29.3673 21.3366 0
      vertex 30.4211 13.5443 0
    endloop
  endfacet
  facet normal 0 0 -1
    outer loop
      vertex 26.9403 19.5732 0
      vertex 24.2894 26.9762 0
      vertex 29.3673 21.3366 0
    endloop
  endfacet
  facet normal 0 0 -1
    outer loop
      vertex 22.282 24.7467 0
      vertex 24.2894 26.9762 0
      vertex 26.9403 19.5732 0
    endloop
  endfacet
  facet normal 0 0 -1
    outer loop
      vertex 22.282 24.7467 0
      vertex 18.15 31.4367 0
      vertex 24.2894 26.9762 0
    endloop
  endfacet
  facet normal 0 0 -1
    outer loop
      vertex 16.65 28.8386 0
      vertex 18.15 31.4367 0
      vertex 22.282 24.7467 0
    endloop
  endfacet
  facet normal 0 0 -1
    outer loop
      vertex 16.65 28.8386 0
      vertex 11.2173 34.5233 0
      vertex 18.15 31.4367 0
    endloop
  endfacet
  facet normal 0 0 -1
    outer loop
      vertex 10.2903 31.6702 0
      vertex 11.2173 34.5233 0
      vertex 16.65 28.8386 0
    endloop
  endfacet
  facet normal 0 0 -1
    outer loop
      vertex 10.2903 31.6702 0
      vertex 3.79438 36.1011 0
      vertex 11.2173 34.5233 0
    endloop
  endfacet
  facet normal 0 0 -1
    outer loop
      vertex 3.4808 33.1176 0
      vertex 3.79438 36.1011 0
      vertex 10.2903 31.6702 0
    endloop
  endfacet
  facet normal 0 0 -1
    outer loop
      vertex -3.4808 33.1176 0
      vertex 3.79438 36.1011 0
      vertex 3.4808 33.1176 0
    endloop
  endfacet
  facet normal 0 0 -1
    outer loop
      vertex -3.4808 33.1176 0
      vertex -3.79438 36.1011 0
      vertex 3.79438 36.1011 0
    endloop
  endfacet
  facet normal 0 0 -1
    outer loop
      vertex -10.2903 31.6702 0
      vertex -3.79438 36.1011 0
      vertex -3.4808 33.1176 0
    endloop
  endfacet
  facet normal 0 0 -1
    outer loop
      vertex -10.2903 31.6702 0
      vertex -11.2173 34.5233 0
      vertex -3.79438 36.1011 0
    endloop
  endfacet
  facet normal 0 0 -1
    outer loop
      vertex -16.65 28.8386 0
      vertex -11.2173 34.5233 0
      vertex -10.2903 31.6702 0
    endloop
  endfacet
  facet normal 0 0 -1
    outer loop
      vertex -16.65 28.8386 0
      vertex -18.15 31.4367 0
      vertex -11.2173 34.5233 0
    endloop
  endfacet
  facet normal 0 0 -1
    outer loop
      vertex -22.282 24.7467 0
      vertex -18.15 31.4367 0
      vertex -16.65 28.8386 0
    endloop
  endfacet
  facet normal 0 0 -1
    outer loop
      vertex -22.282 24.7467 0
      vertex -24.2894 26.9762 0
      vertex -18.15 31.4367 0
    endloop
  endfacet
  facet normal 0 0 -1
    outer loop
      vertex -26.9403 19.5732 0
      vertex -24.2894 26.9762 0
      vertex -22.282 24.7467 0
    endloop
  endfacet
  facet normal 0 0 -1
    outer loop
      vertex -26.9403 19.5732 0
      vertex -29.3673 21.3366 0
      vertex -24.2894 26.9762 0
    endloop
  endfacet
  facet normal 0 0 -1
    outer loop
      vertex -30.4211 13.5443 0
      vertex -29.3673 21.3366 0
      vertex -26.9403 19.5732 0
    endloop
  endfacet
  facet normal 0 0 -1
    outer loop
      vertex -33.1617 14.7645 0
      vertex -30.4211 13.5443 0
      vertex -32.5723 6.92346 0
    endloop
  endfacet
  facet normal 0 0 -1
    outer loop
      vertex -30.4211 13.5443 0
      vertex -33.1617 14.7645 0
      vertex -29.3673 21.3366 0
    endloop
  endfacet
  facet normal 0 0 -1
    outer loop
      vertex -35.5068 7.54719 0
      vertex -32.5723 6.92346 0
      vertex -33.3 0 0
    endloop
  endfacet
  facet normal 0 0 -1
    outer loop
      vertex -36.3 0 0
      vertex -33.3 0 0
      vertex -35.5068 -7.54719 0
    endloop
  endfacet
  facet normal 0 0 -1
    outer loop
      vertex -32.5723 6.92346 0
      vertex -35.5068 7.54719 0
      vertex -33.1617 14.7645 0
    endloop
  endfacet
  facet normal 0 0 -1
    outer loop
      vertex -33.3 0 0
      vertex -36.3 0 0
      vertex -35.5068 7.54719 0
    endloop
  endfacet
  facet normal 0.587785 -0.809017 0
    outer loop
      vertex 18.15 -31.4367 0
      vertex 24.2894 -26.9762 10
      vertex 18.15 -31.4367 10
    endloop
  endfacet
  facet normal 0.587785 -0.809017 0
    outer loop
      vertex 24.2894 -26.9762 10
      vertex 18.15 -31.4367 0
      vertex 24.2894 -26.9762 0
    endloop
  endfacet
  facet normal -0.207912 -0.978148 0
    outer loop
      vertex -11.2173 -34.5233 0
      vertex -3.79438 -36.1011 10
      vertex -11.2173 -34.5233 10
    endloop
  endfacet
  facet normal -0.207912 -0.978148 -0
    outer loop
      vertex -3.79438 -36.1011 10
      vertex -11.2173 -34.5233 0
      vertex -3.79438 -36.1011 0
    endloop
  endfacet
  facet normal -0.743145 -0.669131 0
    outer loop
      vertex -24.2894 -26.9762 0
      vertex -29.3673 -21.3366 10
      vertex -29.3673 -21.3366 0
    endloop
  endfacet
  facet normal -0.743145 -0.669131 0
    outer loop
      vertex -29.3673 -21.3366 10
      vertex -24.2894 -26.9762 0
      vertex -24.2894 -26.9762 10
    endloop
  endfacet
  facet normal -0.866026 -0.5 0
    outer loop
      vertex -29.3673 -21.3366 0
      vertex -33.1617 -14.7645 10
      vertex -33.1617 -14.7645 0
    endloop
  endfacet
  facet normal -0.866026 -0.5 0
    outer loop
      vertex -33.1617 -14.7645 10
      vertex -29.3673 -21.3366 0
      vertex -29.3673 -21.3366 10
    endloop
  endfacet
  facet normal -0.951056 -0.309018 0
    outer loop
      vertex -33.1617 -14.7645 0
      vertex -35.5068 -7.54719 10
      vertex -35.5068 -7.54719 0
    endloop
  endfacet
  facet normal -0.951056 -0.309018 0
    outer loop
      vertex -35.5068 -7.54719 10
      vertex -33.1617 -14.7645 0
      vertex -33.1617 -14.7645 10
    endloop
  endfacet
  facet normal -0.994522 -0.104528 0
    outer loop
      vertex -35.5068 -7.54719 0
      vertex -36.3 0 10
      vertex -36.3 0 0
    endloop
  endfacet
  facet normal -0.994522 -0.104528 0
    outer loop
      vertex -36.3 0 10
      vertex -35.5068 -7.54719 0
      vertex -35.5068 -7.54719 10
    endloop
  endfacet
  facet normal 0.406736 -0.913546 0
    outer loop
      vertex 11.2173 -34.5233 0
      vertex 18.15 -31.4367 10
      vertex 11.2173 -34.5233 10
    endloop
  endfacet
  facet normal 0.406736 -0.913546 0
    outer loop
      vertex 18.15 -31.4367 10
      vertex 11.2173 -34.5233 0
      vertex 18.15 -31.4367 0
    endloop
  endfacet
  facet normal 0.207912 -0.978148 0
    outer loop
      vertex 3.79438 -36.1011 0
      vertex 11.2173 -34.5233 10
      vertex 3.79438 -36.1011 10
    endloop
  endfacet
  facet normal 0.207912 -0.978148 0
    outer loop
      vertex 11.2173 -34.5233 10
      vertex 3.79438 -36.1011 0
      vertex 11.2173 -34.5233 0
    endloop
  endfacet
  facet normal 0.743145 -0.669131 0
    outer loop
      vertex 24.2894 -26.9762 10
      vertex 29.3673 -21.3366 0
      vertex 29.3673 -21.3366 10
    endloop
  endfacet
  facet normal 0.743145 -0.669131 0
    outer loop
      vertex 29.3673 -21.3366 0
      vertex 24.2894 -26.9762 10
      vertex 24.2894 -26.9762 0
    endloop
  endfacet
  facet normal -0.406736 -0.913546 0
    outer loop
      vertex -18.15 -31.4367 0
      vertex -11.2173 -34.5233 10
      vertex -18.15 -31.4367 10
    endloop
  endfacet
  facet normal -0.406736 -0.913546 -0
    outer loop
      vertex -11.2173 -34.5233 10
      vertex -18.15 -31.4367 0
      vertex -11.2173 -34.5233 0
    endloop
  endfacet
  facet normal -0.587785 -0.809017 0
    outer loop
      vertex -24.2894 -26.9762 0
      vertex -18.15 -31.4367 10
      vertex -24.2894 -26.9762 10
    endloop
  endfacet
  facet normal -0.587785 -0.809017 -0
    outer loop
      vertex -18.15 -31.4367 10
      vertex -24.2894 -26.9762 0
      vertex -18.15 -31.4367 0
    endloop
  endfacet
  facet normal -0.994522 -0.104528 0
    outer loop
      vertex 33.3 0 0
      vertex 32.5723 6.92346 10
      vertex 32.5723 6.92346 0
    endloop
  endfacet
  facet normal -0.994522 -0.104528 0
    outer loop
      vertex 32.5723 6.92346 10
      vertex 33.3 0 0
      vertex 33.3 0 10
    endloop
  endfacet
  facet normal 0.994522 -0.104528 0
    outer loop
      vertex -33.3 0 10
      vertex -32.5723 6.92346 0
      vertex -32.5723 6.92346 10
    endloop
  endfacet
  facet normal 0.994522 -0.104528 0
    outer loop
      vertex -32.5723 6.92346 0
      vertex -33.3 0 10
      vertex -33.3 0 0
    endloop
  endfacet
  facet normal 0 -1 0
    outer loop
      vertex -3.4808 33.1176 0
      vertex 3.4808 33.1176 10
      vertex -3.4808 33.1176 10
    endloop
  endfacet
  facet normal 0 -1 -0
    outer loop
      vertex 3.4808 33.1176 10
      vertex -3.4808 33.1176 0
      vertex 3.4808 33.1176 0
    endloop
  endfacet
  facet normal 0 1 -0
    outer loop
      vertex 3.4808 -33.1176 0
      vertex -3.4808 -33.1176 10
      vertex 3.4808 -33.1176 10
    endloop
  endfacet
  facet normal 0 1 0
    outer loop
      vertex -3.4808 -33.1176 10
      vertex 3.4808 -33.1176 0
      vertex -3.4808 -33.1176 0
    endloop
  endfacet
  facet normal -0.587785 -0.809017 0
    outer loop
      vertex 16.65 28.8386 0
      vertex 22.282 24.7467 10
      vertex 16.65 28.8386 10
    endloop
  endfacet
  facet normal -0.587785 -0.809017 -0
    outer loop
      vertex 22.282 24.7467 10
      vertex 16.65 28.8386 0
      vertex 22.282 24.7467 0
    endloop
  endfacet
  facet normal 0.743145 -0.669131 0
    outer loop
      vertex -26.9403 19.5732 10
      vertex -22.282 24.7467 0
      vertex -22.282 24.7467 10
    endloop
  endfacet
  facet normal 0.743145 -0.669131 0
    outer loop
      vertex -22.282 24.7467 0
      vertex -26.9403 19.5732 10
      vertex -26.9403 19.5732 0
    endloop
  endfacet
  facet normal 0.866026 -0.5 0
    outer loop
      vertex -30.4211 13.5443 10
      vertex -26.9403 19.5732 0
      vertex -26.9403 19.5732 10
    endloop
  endfacet
  facet normal 0.866026 -0.5 0
    outer loop
      vertex -26.9403 19.5732 0
      vertex -30.4211 13.5443 10
      vertex -30.4211 13.5443 0
    endloop
  endfacet
  facet normal 0.406737 -0.913546 0
    outer loop
      vertex -16.65 28.8386 0
      vertex -10.2903 31.6702 10
      vertex -16.65 28.8386 10
    endloop
  endfacet
  facet normal 0.406737 -0.913546 0
    outer loop
      vertex -10.2903 31.6702 10
      vertex -16.65 28.8386 0
      vertex -10.2903 31.6702 0
    endloop
  endfacet
  facet normal -0.866026 0.5 0
    outer loop
      vertex 26.9403 -19.5732 0
      vertex 30.4211 -13.5443 10
      vertex 30.4211 -13.5443 0
    endloop
  endfacet
  facet normal -0.866026 0.5 0
    outer loop
      vertex 30.4211 -13.5443 10
      vertex 26.9403 -19.5732 0
      vertex 26.9403 -19.5732 10
    endloop
  endfacet
  facet normal -0.866026 -0.5 0
    outer loop
      vertex 30.4211 13.5443 0
      vertex 26.9403 19.5732 10
      vertex 26.9403 19.5732 0
    endloop
  endfacet
  facet normal -0.866026 -0.5 0
    outer loop
      vertex 26.9403 19.5732 10
      vertex 30.4211 13.5443 0
      vertex 30.4211 13.5443 10
    endloop
  endfacet
  facet normal -0.951056 -0.309017 0
    outer loop
      vertex 32.5723 6.92346 0
      vertex 30.4211 13.5443 10
      vertex 30.4211 13.5443 0
    endloop
  endfacet
  facet normal -0.951056 -0.309017 0
    outer loop
      vertex 30.4211 13.5443 10
      vertex 32.5723 6.92346 0
      vertex 32.5723 6.92346 10
    endloop
  endfacet
  facet normal -0.743145 -0.669131 0
    outer loop
      vertex 26.9403 19.5732 0
      vertex 22.282 24.7467 10
      vertex 22.282 24.7467 0
    endloop
  endfacet
  facet normal -0.743145 -0.669131 0
    outer loop
      vertex 22.282 24.7467 10
      vertex 26.9403 19.5732 0
      vertex 26.9403 19.5732 10
    endloop
  endfacet
  facet normal -0.207911 -0.978148 0
    outer loop
      vertex 3.4808 33.1176 0
      vertex 10.2903 31.6702 10
      vertex 3.4808 33.1176 10
    endloop
  endfacet
  facet normal -0.207911 -0.978148 -0
    outer loop
      vertex 10.2903 31.6702 10
      vertex 3.4808 33.1176 0
      vertex 10.2903 31.6702 0
    endloop
  endfacet
  facet normal -0.406737 -0.913546 0
    outer loop
      vertex 10.2903 31.6702 0
      vertex 16.65 28.8386 10
      vertex 10.2903 31.6702 10
    endloop
  endfacet
  facet normal -0.406737 -0.913546 -0
    outer loop
      vertex 16.65 28.8386 10
      vertex 10.2903 31.6702 0
      vertex 16.65 28.8386 0
    endloop
  endfacet
  facet normal 0.951056 -0.309017 0
    outer loop
      vertex -32.5723 6.92346 10
      vertex -30.4211 13.5443 0
      vertex -30.4211 13.5443 10
    endloop
  endfacet
  facet normal 0.951056 -0.309017 0
    outer loop
      vertex -30.4211 13.5443 0
      vertex -32.5723 6.92346 10
      vertex -32.5723 6.92346 0
    endloop
  endfacet
  facet normal 0.587785 -0.809017 0
    outer loop
      vertex -22.282 24.7467 0
      vertex -16.65 28.8386 10
      vertex -22.282 24.7467 10
    endloop
  endfacet
  facet normal 0.587785 -0.809017 0
    outer loop
      vertex -16.65 28.8386 10
      vertex -22.282 24.7467 0
      vertex -16.65 28.8386 0
    endloop
  endfacet
  facet normal 0.207911 -0.978148 0
    outer loop
      vertex -10.2903 31.6702 0
      vertex -3.4808 33.1176 10
      vertex -10.2903 31.6702 10
    endloop
  endfacet
  facet normal 0.207911 -0.978148 0
    outer loop
      vertex -3.4808 33.1176 10
      vertex -10.2903 31.6702 0
      vertex -3.4808 33.1176 0
    endloop
  endfacet
  facet normal -0.994522 0.104528 0
    outer loop
      vertex 32.5723 -6.92346 0
      vertex 33.3 0 10
      vertex 33.3 0 0
    endloop
  endfacet
  facet normal -0.994522 0.104528 0
    outer loop
      vertex 33.3 0 10
      vertex 32.5723 -6.92346 0
      vertex 32.5723 -6.92346 10
    endloop
  endfacet
  facet normal -0.951056 0.309017 0
    outer loop
      vertex 30.4211 -13.5443 0
      vertex 32.5723 -6.92346 10
      vertex 32.5723 -6.92346 0
    endloop
  endfacet
  facet normal -0.951056 0.309017 0
    outer loop
      vertex 32.5723 -6.92346 10
      vertex 30.4211 -13.5443 0
      vertex 30.4211 -13.5443 10
    endloop
  endfacet
  facet normal 0.587785 0.809017 -0
    outer loop
      vertex -16.65 -28.8386 0
      vertex -22.282 -24.7467 10
      vertex -16.65 -28.8386 10
    endloop
  endfacet
  facet normal 0.587785 0.809017 0
    outer loop
      vertex -22.282 -24.7467 10
      vertex -16.65 -28.8386 0
      vertex -22.282 -24.7467 0
    endloop
  endfacet
  facet normal 0.866026 0.5 0
    outer loop
      vertex -26.9403 -19.5732 10
      vertex -30.4211 -13.5443 0
      vertex -30.4211 -13.5443 10
    endloop
  endfacet
  facet normal 0.866026 0.5 0
    outer loop
      vertex -30.4211 -13.5443 0
      vertex -26.9403 -19.5732 10
      vertex -26.9403 -19.5732 0
    endloop
  endfacet
  facet normal 0.994522 0.104528 0
    outer loop
      vertex -32.5723 -6.92346 10
      vertex -33.3 0 0
      vertex -33.3 0 10
    endloop
  endfacet
  facet normal 0.994522 0.104528 0
    outer loop
      vertex -33.3 0 0
      vertex -32.5723 -6.92346 10
      vertex -32.5723 -6.92346 0
    endloop
  endfacet
  facet normal -0.207911 0.978148 0
    outer loop
      vertex 10.2903 -31.6702 0
      vertex 3.4808 -33.1176 10
      vertex 10.2903 -31.6702 10
    endloop
  endfacet
  facet normal -0.207911 0.978148 0
    outer loop
      vertex 3.4808 -33.1176 10
      vertex 10.2903 -31.6702 0
      vertex 3.4808 -33.1176 0
    endloop
  endfacet
  facet normal -0.587785 0.809017 0
    outer loop
      vertex 22.282 -24.7467 0
      vertex 16.65 -28.8386 10
      vertex 22.282 -24.7467 10
    endloop
  endfacet
  facet normal -0.587785 0.809017 0
    outer loop
      vertex 16.65 -28.8386 10
      vertex 22.282 -24.7467 0
      vertex 16.65 -28.8386 0
    endloop
  endfacet
  facet normal 0.743145 0.669131 0
    outer loop
      vertex -22.282 -24.7467 10
      vertex -26.9403 -19.5732 0
      vertex -26.9403 -19.5732 10
    endloop
  endfacet
  facet normal 0.743145 0.669131 0
    outer loop
      vertex -26.9403 -19.5732 0
      vertex -22.282 -24.7467 10
      vertex -22.282 -24.7467 0
    endloop
  endfacet
  facet normal 0.951056 0.309017 0
    outer loop
      vertex -30.4211 -13.5443 10
      vertex -32.5723 -6.92346 0
      vertex -32.5723 -6.92346 10
    endloop
  endfacet
  facet normal 0.951056 0.309017 0
    outer loop
      vertex -32.5723 -6.92346 0
      vertex -30.4211 -13.5443 10
      vertex -30.4211 -13.5443 0
    endloop
  endfacet
  facet normal -0.406737 0.913546 0
    outer loop
      vertex 16.65 -28.8386 0
      vertex 10.2903 -31.6702 10
      vertex 16.65 -28.8386 10
    endloop
  endfacet
  facet normal -0.406737 0.913546 0
    outer loop
      vertex 10.2903 -31.6702 10
      vertex 16.65 -28.8386 0
      vertex 10.2903 -31.6702 0
    endloop
  endfacet
  facet normal -0.743145 0.669131 0
    outer loop
      vertex 22.282 -24.7467 0
      vertex 26.9403 -19.5732 10
      vertex 26.9403 -19.5732 0
    endloop
  endfacet
  facet normal -0.743145 0.669131 0
    outer loop
      vertex 26.9403 -19.5732 10
      vertex 22.282 -24.7467 0
      vertex 22.282 -24.7467 10
    endloop
  endfacet
  facet normal 0.406737 0.913546 -0
    outer loop
      vertex -10.2903 -31.6702 0
      vertex -16.65 -28.8386 10
      vertex -10.2903 -31.6702 10
    endloop
  endfacet
  facet normal 0.406737 0.913546 0
    outer loop
      vertex -16.65 -28.8386 10
      vertex -10.2903 -31.6702 0
      vertex -16.65 -28.8386 0
    endloop
  endfacet
  facet normal 0.207911 0.978148 -0
    outer loop
      vertex -3.4808 -33.1176 0
      vertex -10.2903 -31.6702 10
      vertex -3.4808 -33.1176 10
    endloop
  endfacet
  facet normal 0.207911 0.978148 0
    outer loop
      vertex -10.2903 -31.6702 10
      vertex -3.4808 -33.1176 0
      vertex -10.2903 -31.6702 0
    endloop
  endfacet
endsolid OpenSCAD_Model
